<svg width="1920" height="704" viewBox="0 0 1920 704" fill="none" xmlns="http://www.w3.org/2000/svg">
<g clip-path="url(#clip0_142_646)">
<rect x="0.5" y="113.5" width="239" height="239" stroke="#353535"/>
<rect x="720.5" y="352.5" width="239" height="239" stroke="#353535"/>
<rect x="960.5" y="112.5" width="239" height="239" stroke="#353535"/>
<path d="M479.5 352.5H242.204L479.5 114.211V352.5Z" stroke="#353535"/>
<path d="M720.5 352.5H959.789L720.5 114.204V352.5Z" stroke="#353535"/>
<path d="M1679.5 351.5H1440.21L1679.5 589.796V351.5Z" stroke="#353535"/>
<path d="M1439.5 232V351.5H1200.5V232C1200.5 166.002 1254 112.5 1320 112.5C1386 112.5 1439.5 166.002 1439.5 232Z" stroke="#353535"/>
<path d="M680 113.5H719.5V352.5H480.5V313C480.5 202.819 569.819 113.5 680 113.5Z" stroke="#353535"/>
<path d="M1400 353.5H1439.5V592.5H1200.5V553C1200.5 442.819 1289.82 353.5 1400 353.5Z" stroke="#353535"/>
<path d="M719.5 552L719.5 591.5L480.5 591.5L480.5 352.5L520 352.5C630.181 352.5 719.5 441.819 719.5 552Z" stroke="#353535"/>
<path d="M1440.87 351.5L1579.43 113.12L1679.25 351.5H1440.87Z" stroke="#353535"/>
<rect x="1680.5" y="112.5" width="239" height="239" stroke="#353535"/>
</g>
<defs>
<clipPath id="clip0_142_646">
<rect width="1920" height="704" fill="white"/>
</clipPath>
</defs>
</svg>
