<svg width="280" height="28" viewBox="0 0 280 28" fill="none" xmlns="http://www.w3.org/2000/svg">
<path fill-rule="evenodd" clip-rule="evenodd" d="M1.86591 12.3853V3.31136H10.3303C14.0248 3.31136 16.1038 5.02605 16.1038 7.56835V7.63524C16.1038 10.3361 14.1859 11.9616 11.3611 12.3135V14.0009C15.2737 14.2313 17.3923 15.8346 17.3923 18.4586V18.523C17.3923 21.4271 14.8822 23.2409 10.9225 23.2409H1.86591V13.9687V12.3853ZM13.9257 12.9478C15.8064 12.1871 17.8532 10.6037 17.8532 7.46922V7.40233C17.8532 3.93826 14.85 1.72797 10.3625 1.72797H0.151215V24.8267H10.8581C15.8411 24.8267 19.1417 22.3835 19.1417 18.523V18.4586C19.1417 15.2572 16.696 13.6738 13.9257 12.9478ZM261.681 24.8267V1.72797H279.106V6.24763H266.731V10.9333H277.619V15.4554H266.731V20.3046H279.269V24.8267H261.681ZM245.28 25.2232C238.087 25.2232 233.138 20.1733 233.138 13.3418V13.2749C233.138 6.70851 238.253 1.33154 245.25 1.33154C249.406 1.33154 251.913 2.45402 254.324 4.49827L251.123 8.35879C249.341 6.87455 247.755 6.01718 245.084 6.01718C241.387 6.01718 238.451 9.28302 238.451 13.2105V13.2749C238.451 17.4997 241.353 20.602 245.449 20.602C247.295 20.602 248.945 20.1411 250.231 19.2169V15.9163H245.117V11.528H255.149V21.5584C252.773 23.5729 249.505 25.2232 245.28 25.2232ZM222.645 24.8267L211.457 10.1429V24.8267H206.444V1.72797H211.128L221.951 15.9485V1.72797H226.969V24.8267H222.645ZM191.991 15.1581L188.918 7.66745L185.851 15.1581H191.991ZM185.851 15.1581L181.923 24.8267H176.742L186.641 1.56199H191.329L201.228 24.8267H195.916L191.991 15.1581H185.851ZM166.449 24.8267V15.5521H157.078V24.8267H151.995V1.72797H157.078V10.8689H166.449V1.72797H171.531V24.8267H166.449ZM136.816 25.2232C130.017 25.2232 124.969 19.9751 124.969 13.3418V13.2749C124.969 6.70851 129.918 1.33154 137.012 1.33154C141.37 1.33154 143.977 2.78355 146.12 4.8947L142.887 8.62391C141.105 7.00586 139.289 6.01718 136.98 6.01718C133.087 6.01718 130.279 9.25081 130.279 13.2105V13.2749C130.279 17.237 133.02 20.5375 136.98 20.5375C139.621 20.5375 141.237 19.4795 143.053 17.8292L146.284 21.0975C143.91 23.6398 141.271 25.2232 136.816 25.2232ZM104.472 16.9075V24.8267H102.758V1.72797H104.472V16.9075ZM117.84 1.72797H120.185L110.087 11.922L120.613 24.8267H118.371L107.909 11.9715L117.84 1.72797ZM87.2139 25.2232C80.6128 25.2232 75.7314 19.9751 75.7314 13.3418V13.2749C75.7314 6.7432 80.6128 1.33154 87.2808 1.33154C91.4064 1.33154 93.8793 2.848 96.2556 5.02605L95.0365 6.27985C93.022 4.33224 90.7102 2.88267 87.2461 2.88267C81.7031 2.88267 77.5105 7.40232 77.5105 13.2105V13.2749C77.5105 19.1177 81.77 23.672 87.2808 23.672C90.611 23.672 92.8882 22.3836 95.2323 20.0742L96.387 21.1967C93.9463 23.6052 91.3073 25.2232 87.2139 25.2232ZM67.4801 13.2749C67.4801 7.56834 63.3247 2.88267 57.6156 2.88267C51.9041 2.88267 47.8132 7.50143 47.8132 13.2105V13.2749C47.8132 18.9864 51.971 23.672 57.6801 23.672C63.3891 23.672 67.4801 19.0508 67.4801 13.3418V13.2749ZM57.6156 25.2232C50.6181 25.2232 46.0316 19.6455 46.0316 13.3418V13.2749C46.0316 6.97365 50.685 1.33154 57.6801 1.33154C64.6776 1.33154 69.2617 6.90922 69.2617 13.2105C69.2963 13.2427 69.2963 13.2427 69.2617 13.2749C69.2617 19.5786 64.6107 25.2232 57.6156 25.2232ZM26.3002 24.8267V1.72797H28.0174V23.2409H41.5788V24.8267H26.3002Z" fill="white"/>
</svg>
