<svg width="280" height="58" viewBox="0 0 280 58" fill="none" xmlns="http://www.w3.org/2000/svg">
<g clip-path="url(#clip0_187_2449)">
<path d="M57.931 0H0V57.931H57.931V0Z" fill="white"/>
<path d="M27.0345 32.8284L16.9931 14.0974H21.6276L27.4207 25.8767C27.4207 26.0698 27.6138 26.2629 27.8069 26.456C28 26.6491 28 26.8422 28.1931 27.2284L28.3862 27.4215V27.6147C28.5793 28.0009 28.5793 28.194 28.7724 28.5802C28.9655 28.7733 28.9655 29.1595 29.1586 29.3526C29.3517 28.7733 29.7379 28.3871 29.931 27.6147C30.1241 27.0353 30.5103 26.456 30.8965 25.8767L36.6896 14.0974H40.9379L30.8965 33.0215V44.994H27.0345V32.8284Z" fill="black"/>
<path d="M84.3862 11.2007C87.2828 11.2007 89.7931 11.9731 91.7242 13.5179L89.7931 15.8352C88.0552 14.6765 86.3173 13.9041 84.1931 13.9041C80.9104 13.9041 78.4 15.6421 77.0483 18.9248C76.2759 20.8559 75.8897 23.3662 75.8897 26.649C75.8897 29.1593 76.2759 31.2834 76.8552 32.8283C78.4 36.4972 80.9104 38.2352 84.7724 38.2352C86.8966 38.2352 88.8276 37.6559 90.5655 36.3041L92.4966 38.8145C89.9862 40.3593 87.2828 41.1317 84.3862 41.1317C80.9104 41.1317 78.0138 39.78 75.6966 36.8834C73.3793 34.18 72.4138 30.511 72.4138 26.0697C72.4138 21.6283 73.5724 18.1524 75.8897 15.2559C78.0138 12.7455 80.9104 11.2007 84.3862 11.2007Z" fill="white"/>
<path d="M95.3932 30.3174C95.3932 26.8416 96.1656 24.1381 97.9035 22.2071C99.6415 20.2761 101.766 19.1174 104.469 19.1174C107.559 19.1174 110.069 20.2761 111.807 22.7864C113.159 24.7174 113.738 27.4209 113.738 30.7036C113.738 34.5657 112.579 37.6554 110.455 39.5864C108.91 40.9381 106.979 41.7105 104.662 41.7105C101.766 41.7105 99.6415 40.745 97.9035 38.6209C96.1656 36.6898 95.3932 33.7933 95.3932 30.3174ZM108.91 24.7174C107.945 22.9795 106.593 22.014 104.469 22.014C102.345 22.014 100.993 22.7864 100.028 24.3312C99.2553 25.4898 99.0621 27.4209 99.0621 29.9312C99.0621 33.214 99.4484 35.5312 100.414 36.8829C101.379 38.2347 102.731 39.0071 104.662 39.0071C106.979 39.0071 108.524 37.8485 109.297 35.7243C109.683 34.5657 109.876 33.0209 109.876 31.0898C110.069 28.1933 109.683 26.0692 108.91 24.7174Z" fill="white"/>
<path d="M119.917 25.1036C119.917 22.9795 119.724 21.2416 119.145 19.8898L122.428 19.1174C123.007 20.0829 123.2 21.2416 123.2 22.2071V22.4002C123.972 21.6278 124.745 20.8554 125.904 20.2761C127.255 19.5036 128.414 19.1174 129.572 19.1174C131.31 19.1174 132.855 19.8898 133.821 21.2416C134.014 21.6278 134.4 22.2071 134.593 22.5933C136.91 20.2761 139.035 19.1174 141.352 19.1174C142.897 19.1174 144.248 19.6967 145.214 20.6623C146.179 21.8209 146.759 23.1726 146.759 24.7174V40.745H143.283V24.9105C143.283 22.7864 142.317 21.8209 140.579 21.8209C139.614 21.8209 138.455 22.2071 137.49 22.9795C137.104 23.3657 136.331 23.945 135.366 24.7174L134.979 25.1036V40.745H131.31V25.6829C131.31 24.3312 131.117 23.3657 130.731 22.9795C130.152 22.4002 129.572 22.2071 128.607 22.2071C127.062 22.2071 125.324 23.1726 123.2 25.1036V40.9381H119.917V25.1036Z" fill="white"/>
<path d="M152.745 10.4274L156.221 9.65503C156.607 11.1999 156.8 12.9378 156.8 15.0619V19.8895C156.8 21.0481 156.8 21.8205 156.8 22.2068C158.731 20.2757 160.855 19.3102 162.979 19.3102C165.49 19.3102 167.614 20.2757 168.966 22.2068C170.51 24.1378 171.283 26.8412 171.283 30.124C171.283 33.5999 170.51 36.3033 168.966 38.4274C167.421 40.5516 165.297 41.5171 162.786 41.5171C161.628 41.5171 160.662 41.324 159.503 40.7447C158.345 40.1654 157.572 39.5861 156.993 38.8136C156.8 39.7792 156.607 40.5516 156.414 41.1309H153.131C153.517 40.1654 153.71 38.4274 153.71 35.724V15.4481C153.517 13.1309 153.324 11.393 152.745 10.4274ZM158.345 23.5585C157.766 23.9447 157.186 24.524 156.8 25.1033V36.1102C158.152 37.8481 159.89 38.6205 162.014 38.6205C163.752 38.6205 165.103 38.0412 165.876 36.6895C166.841 35.1447 167.421 33.0205 167.421 29.9309C167.421 27.2274 167.034 25.2964 166.069 24.1378C165.297 22.9792 163.945 22.3999 162.014 22.3999C160.855 22.2068 159.503 22.593 158.345 23.5585Z" fill="white"/>
<path d="M176.303 13.1312C176.303 12.3588 176.497 11.7795 177.076 11.2001C177.655 10.6208 178.234 10.4277 179.007 10.4277C179.779 10.4277 180.359 10.6208 180.938 11.2001C181.517 11.7795 181.71 12.3588 181.71 13.1312C181.71 13.9036 181.517 14.4829 180.938 15.0622C180.359 15.6415 179.779 15.8346 179.007 15.8346C178.234 15.8346 177.655 15.6415 177.076 15.0622C176.497 14.4829 176.303 13.9036 176.303 13.1312ZM177.076 40.9381V19.6967L180.552 19.1174V40.9381H177.076Z" fill="white"/>
<path d="M188.083 25.1036C188.083 23.5588 188.083 22.5933 187.89 22.2071C187.89 21.6278 187.504 21.0485 187.117 20.0829L190.4 19.1174C190.979 20.2761 191.172 21.2416 191.172 22.4002C193.297 20.2761 195.614 19.1174 197.931 19.1174C199.09 19.1174 200.055 19.3105 201.021 19.8898C201.986 20.4692 202.759 21.2416 203.145 22.2071C203.531 22.9795 203.724 23.7519 203.724 24.7174V40.9381H200.441V26.4554C200.441 24.7174 200.248 23.5588 199.669 22.9795C199.09 22.4002 198.317 22.014 197.352 22.014C196.579 22.014 195.421 22.4002 194.262 22.9795C193.104 23.5588 192.138 24.3312 191.366 25.1036V40.9381H188.083V25.1036Z" fill="white"/>
<path d="M211.448 24.3312L209.71 22.014C212.607 20.0829 215.503 19.1174 218.593 19.1174C221.683 19.1174 223.614 20.2761 224.579 22.4002C224.966 23.1726 224.966 24.3312 224.966 26.0692V27.2278L224.772 34.1795C224.772 34.3726 224.772 34.7588 224.772 35.145C224.772 36.3036 224.772 37.0761 224.966 37.6554C225.159 38.4278 225.738 39.0071 226.51 39.3933L224.772 41.7105C223.228 41.1312 222.262 40.1657 221.876 38.6209C219.945 40.5519 217.821 41.5174 215.697 41.5174C213.572 41.5174 211.835 40.9381 210.483 39.7795C209.324 38.814 208.745 37.2692 208.745 35.3381C208.745 32.8278 209.71 31.0898 211.641 29.7381C213.572 28.3864 216.469 27.8071 219.945 27.8071C220.524 27.8071 220.91 27.8071 221.49 27.8071V26.2623C221.49 24.5243 221.297 23.3657 220.717 22.9795C219.945 22.2071 219.172 21.8209 217.821 21.8209C216.662 21.8209 215.31 22.2071 213.766 22.7864C213.186 23.1726 212.414 23.7519 211.448 24.3312ZM221.683 35.7243L221.876 30.1243C220.91 30.1243 220.331 30.1243 220.138 30.1243C217.048 30.1243 215.117 30.7036 213.959 31.8623C213.186 32.6347 212.8 33.7933 212.8 35.3381C212.8 37.8485 213.959 39.2002 216.469 39.2002C218.786 39.0071 220.524 37.8485 221.683 35.7243Z" fill="white"/>
<path d="M235.972 19.6964H241.379L240.414 22.3998H235.972V36.1102C235.972 37.2688 236.166 38.0412 236.552 38.6205C236.938 39.0067 237.71 39.393 238.676 39.393C239.448 39.393 240.221 39.1999 240.8 39.0067L241.186 41.1309C240.028 41.7102 238.869 41.9033 237.517 41.9033C234.235 41.9033 232.69 40.3585 232.69 37.0757V22.3998H229.793V19.6964H232.497V19.3102C232.497 18.924 232.69 17.3792 232.883 14.8688V14.2895L236.359 13.5171C235.972 15.8343 235.972 17.9585 235.972 19.6964Z" fill="white"/>
<path d="M244.855 30.3174C244.855 26.8416 245.628 24.1381 247.366 22.2071C248.91 20.2761 251.228 19.1174 253.931 19.1174C257.021 19.1174 259.531 20.2761 261.269 22.7864C262.621 24.7174 263.2 27.4209 263.2 30.7036C263.2 34.5657 262.041 37.6554 259.917 39.5864C258.372 40.9381 256.441 41.7105 254.124 41.7105C251.228 41.7105 249.104 40.745 247.366 38.6209C245.821 36.6898 244.855 33.7933 244.855 30.3174ZM258.566 24.7174C257.6 22.9795 256.248 22.014 254.124 22.014C252 22.014 250.648 22.7864 249.683 24.3312C248.91 25.4898 248.717 27.4209 248.717 29.9312C248.717 33.214 249.103 35.5312 250.069 36.8829C251.035 38.2347 252.386 39.0071 254.317 39.0071C256.635 39.0071 258.179 37.8485 258.952 35.7243C259.338 34.5657 259.531 33.0209 259.531 31.0898C259.531 28.1933 259.145 26.0692 258.566 24.7174Z" fill="white"/>
<path d="M269.572 24.7174C269.572 22.7864 269.379 21.2416 268.8 20.0829L272.083 19.1174C272.662 20.2761 272.855 21.2416 272.855 22.4002V22.7864C274.593 20.4692 276.524 19.3105 278.841 19.3105C279.228 19.3105 279.614 19.3105 280 19.5036L278.648 23.1726C278.262 22.9795 277.876 22.9795 277.683 22.9795C276.91 22.9795 275.945 23.1726 275.172 23.7519C274.4 24.3312 273.628 24.9105 273.241 25.683C273.048 26.2623 272.855 27.0347 272.855 28.0002V41.3243H269.572V24.7174Z" fill="white"/>
</g>
<defs>
<clipPath id="clip0_187_2449">
<rect width="280" height="57.931" fill="white"/>
</clipPath>
</defs>
</svg>
