<svg width="594" height="217" viewBox="0 0 594 217" fill="none" xmlns="http://www.w3.org/2000/svg">
<path d="M593.5 108.717C593.5 168.204 545.27 216.433 485.783 216.433C418.436 216.433 351.128 162.595 297.25 108.717C243.372 54.8385 176.064 1 108.716 1C49.2295 1 1 49.2295 1 108.717C1 168.204 49.2295 216.433 108.716 216.433C176.064 216.433 243.372 162.595 297.25 108.717C351.128 54.8385 418.436 1 485.783 1C545.27 1 593.5 49.2295 593.5 108.717Z" stroke="url(#paint0_linear_498_28307)" stroke-miterlimit="10" stroke-linecap="square"/>
<g opacity="0.6">
<path d="M25.612 87.508H30.89C31.774 87.508 32.606 87.612 33.386 87.82C34.1833 88.0107 34.8767 88.3313 35.466 88.782C36.0553 89.2153 36.5233 89.7787 36.87 90.472C37.2167 91.148 37.39 91.9713 37.39 92.942V93.046C37.39 94.034 37.2167 94.8747 36.87 95.568C36.5233 96.2613 36.0553 96.8333 35.466 97.284C34.8767 97.7173 34.1833 98.038 33.386 98.246C32.606 98.4367 31.774 98.532 30.89 98.532H27.874V106.098H25.612V87.508ZM31.046 96.738C32.3807 96.738 33.3947 96.426 34.088 95.802C34.7813 95.1607 35.128 94.242 35.128 93.046V92.942C35.128 91.6247 34.764 90.6973 34.036 90.16C33.308 89.6053 32.3113 89.328 31.046 89.328H27.874V96.738H31.046Z" fill="white"/>
<path d="M44.1472 106.332C43.5232 106.332 42.9338 106.254 42.3792 106.098C41.8245 105.942 41.3392 105.699 40.9232 105.37C40.5245 105.041 40.2038 104.625 39.9612 104.122C39.7358 103.619 39.6232 103.021 39.6232 102.328C39.6232 101.548 39.8138 100.889 40.1952 100.352C40.5765 99.8147 41.0792 99.3813 41.7032 99.052C42.3445 98.7227 43.0725 98.4887 43.8872 98.35C44.7192 98.194 45.5685 98.116 46.4352 98.116H48.3852V97.128C48.3852 96.036 48.1598 95.256 47.7092 94.788C47.2585 94.3027 46.5132 94.06 45.4732 94.06C43.6012 94.06 42.5612 94.8747 42.3532 96.504H40.1952C40.2645 95.724 40.4552 95.0653 40.7672 94.528C41.0965 93.9907 41.5038 93.5573 41.9892 93.228C42.4918 92.8813 43.0465 92.6387 43.6532 92.5C44.2772 92.344 44.9185 92.266 45.5772 92.266C46.2185 92.266 46.8425 92.344 47.4492 92.5C48.0558 92.6387 48.5845 92.8987 49.0352 93.28C49.4858 93.644 49.8498 94.138 50.1272 94.762C50.4045 95.386 50.5432 96.1747 50.5432 97.128V106.098H48.3852V104.382C47.8825 105.023 47.3018 105.509 46.6432 105.838C45.9845 106.167 45.1525 106.332 44.1472 106.332ZM44.3552 104.616C44.9272 104.616 45.4558 104.547 45.9412 104.408C46.4438 104.252 46.8685 104.035 47.2152 103.758C47.5792 103.481 47.8652 103.143 48.0732 102.744C48.2812 102.328 48.3852 101.86 48.3852 101.34V99.65H46.5132C45.8372 99.65 45.2045 99.702 44.6152 99.806C44.0432 99.8927 43.5405 100.04 43.1072 100.248C42.6912 100.456 42.3618 100.733 42.1192 101.08C41.8938 101.409 41.7812 101.825 41.7812 102.328C41.7812 103.039 41.9718 103.602 42.3532 104.018C42.7345 104.417 43.4018 104.616 44.3552 104.616Z" fill="white"/>
<path d="M59.2989 106.332C57.6695 106.332 56.3869 105.951 55.4509 105.188C54.5322 104.408 54.0382 103.316 53.9689 101.912H56.0749C56.1615 102.727 56.4389 103.368 56.9069 103.836C57.3922 104.304 58.1809 104.538 59.2729 104.538C60.3129 104.538 61.0669 104.365 61.5349 104.018C62.0029 103.654 62.2369 103.108 62.2369 102.38C62.2369 101.669 61.9682 101.158 61.4309 100.846C60.9109 100.534 60.1222 100.283 59.0649 100.092C58.1809 99.936 57.4355 99.754 56.8289 99.546C56.2222 99.3207 55.7369 99.052 55.3729 98.74C55.0089 98.428 54.7402 98.0553 54.5669 97.622C54.4109 97.1887 54.3329 96.6773 54.3329 96.088C54.3329 95.464 54.4715 94.918 54.7489 94.45C55.0262 93.9647 55.3815 93.566 55.8149 93.254C56.2655 92.9247 56.7595 92.682 57.2969 92.526C57.8515 92.3527 58.3975 92.266 58.9349 92.266C59.5415 92.266 60.1222 92.3353 60.6769 92.474C61.2315 92.5953 61.7255 92.812 62.1589 93.124C62.6095 93.436 62.9822 93.8433 63.2769 94.346C63.5715 94.8487 63.7622 95.464 63.8489 96.192H61.7689C61.6129 95.4467 61.3095 94.9093 60.8589 94.58C60.4255 94.2333 59.7755 94.06 58.9089 94.06C58.1289 94.06 57.5049 94.242 57.0369 94.606C56.5689 94.9527 56.3349 95.4207 56.3349 96.01C56.3349 96.322 56.3782 96.5907 56.4649 96.816C56.5689 97.024 56.7422 97.2147 56.9849 97.388C57.2275 97.544 57.5482 97.6913 57.9469 97.83C58.3629 97.9513 58.8829 98.064 59.5069 98.168C60.2002 98.3067 60.8415 98.4627 61.4309 98.636C62.0202 98.792 62.5229 99.0173 62.9389 99.312C63.3722 99.5893 63.7015 99.962 63.9269 100.43C64.1695 100.881 64.2909 101.47 64.2909 102.198C64.2909 103.446 63.8749 104.451 63.0429 105.214C62.2109 105.959 60.9629 106.332 59.2989 106.332Z" fill="white"/>
<path d="M72.0957 106.332C70.4664 106.332 69.1837 105.951 68.2477 105.188C67.3291 104.408 66.8351 103.316 66.7657 101.912H68.8717C68.9584 102.727 69.2357 103.368 69.7037 103.836C70.1891 104.304 70.9777 104.538 72.0697 104.538C73.1097 104.538 73.8637 104.365 74.3317 104.018C74.7997 103.654 75.0337 103.108 75.0337 102.38C75.0337 101.669 74.7651 101.158 74.2277 100.846C73.7077 100.534 72.9191 100.283 71.8617 100.092C70.9777 99.936 70.2324 99.754 69.6257 99.546C69.0191 99.3207 68.5337 99.052 68.1697 98.74C67.8057 98.428 67.5371 98.0553 67.3637 97.622C67.2077 97.1887 67.1297 96.6773 67.1297 96.088C67.1297 95.464 67.2684 94.918 67.5457 94.45C67.8231 93.9647 68.1784 93.566 68.6117 93.254C69.0624 92.9247 69.5564 92.682 70.0937 92.526C70.6484 92.3527 71.1944 92.266 71.7317 92.266C72.3384 92.266 72.9191 92.3353 73.4737 92.474C74.0284 92.5953 74.5224 92.812 74.9557 93.124C75.4064 93.436 75.7791 93.8433 76.0737 94.346C76.3684 94.8487 76.5591 95.464 76.6457 96.192H74.5657C74.4097 95.4467 74.1064 94.9093 73.6557 94.58C73.2224 94.2333 72.5724 94.06 71.7057 94.06C70.9257 94.06 70.3017 94.242 69.8337 94.606C69.3657 94.9527 69.1317 95.4207 69.1317 96.01C69.1317 96.322 69.1751 96.5907 69.2617 96.816C69.3657 97.024 69.5391 97.2147 69.7817 97.388C70.0244 97.544 70.3451 97.6913 70.7437 97.83C71.1597 97.9513 71.6797 98.064 72.3037 98.168C72.9971 98.3067 73.6384 98.4627 74.2277 98.636C74.8171 98.792 75.3197 99.0173 75.7357 99.312C76.1691 99.5893 76.4984 99.962 76.7237 100.43C76.9664 100.881 77.0877 101.47 77.0877 102.198C77.0877 103.446 76.6717 104.451 75.8397 105.214C75.0077 105.959 73.7597 106.332 72.0957 106.332Z" fill="white"/>
<path d="M80.7326 92.5H82.8906V106.098H80.7326V92.5ZM81.7726 89.666C81.3739 89.666 81.0359 89.5273 80.7586 89.25C80.4813 88.9727 80.3426 88.6347 80.3426 88.236C80.3426 87.8373 80.4813 87.4993 80.7586 87.222C81.0359 86.9447 81.3739 86.806 81.7726 86.806C82.1713 86.806 82.5093 86.9447 82.7866 87.222C83.0639 87.4993 83.2026 87.8373 83.2026 88.236C83.2026 88.6347 83.0639 88.9727 82.7866 89.25C82.5093 89.5273 82.1713 89.666 81.7726 89.666Z" fill="white"/>
<path d="M93.2803 104.538C93.9563 104.538 94.5716 104.417 95.1263 104.174C95.6809 103.931 96.1489 103.585 96.5303 103.134C96.9116 102.683 97.2062 102.146 97.4142 101.522C97.6222 100.881 97.7262 100.179 97.7262 99.416V99.234C97.7262 98.454 97.6222 97.7433 97.4142 97.102C97.2062 96.4607 96.9029 95.9147 96.5042 95.464C96.1229 95.0133 95.6549 94.6667 95.1003 94.424C94.5629 94.1813 93.9563 94.06 93.2803 94.06C92.6043 94.06 91.9889 94.1813 91.4342 94.424C90.8796 94.6667 90.4116 95.0133 90.0303 95.464C89.6489 95.9147 89.3542 96.4607 89.1462 97.102C88.9382 97.726 88.8342 98.428 88.8342 99.208V99.416C88.8342 100.976 89.2242 102.224 90.0042 103.16C90.8016 104.079 91.8936 104.538 93.2803 104.538ZM93.2542 106.332C92.2836 106.332 91.3909 106.159 90.5762 105.812C89.7616 105.465 89.0596 104.989 88.4702 104.382C87.8809 103.758 87.4216 103.021 87.0923 102.172C86.7629 101.323 86.5983 100.404 86.5983 99.416V99.208C86.5983 98.1853 86.7629 97.2493 87.0923 96.4C87.4389 95.5507 87.9069 94.8227 88.4962 94.216C89.0856 93.592 89.7876 93.1153 90.6022 92.786C91.4169 92.4393 92.3096 92.266 93.2803 92.266C94.2336 92.266 95.1176 92.4393 95.9323 92.786C96.7643 93.1153 97.4749 93.5833 98.0642 94.19C98.6536 94.7967 99.1129 95.5247 99.4422 96.374C99.7889 97.2233 99.9622 98.1593 99.9622 99.182V99.39C99.9622 100.413 99.7889 101.357 99.4422 102.224C99.1129 103.073 98.6449 103.801 98.0382 104.408C97.4489 105.015 96.7469 105.491 95.9323 105.838C95.1176 106.167 94.2249 106.332 93.2542 106.332Z" fill="white"/>
<path d="M103.634 92.5H105.792V94.658C106.104 94.0167 106.624 93.462 107.352 92.994C108.097 92.5087 109.033 92.266 110.16 92.266C110.853 92.266 111.494 92.37 112.084 92.578C112.673 92.7687 113.176 93.0893 113.592 93.54C114.025 93.9733 114.354 94.5367 114.58 95.23C114.822 95.9233 114.944 96.764 114.944 97.752V106.098H112.786V97.596C112.786 96.4 112.526 95.5247 112.006 94.97C111.486 94.4153 110.68 94.138 109.588 94.138C109.085 94.138 108.6 94.216 108.132 94.372C107.681 94.528 107.282 94.762 106.936 95.074C106.589 95.386 106.312 95.776 106.104 96.244C105.896 96.712 105.792 97.2493 105.792 97.856V106.098H103.634V92.5Z" fill="white"/>
<path d="M126.436 92.5H128.594V106.098H126.436V92.5ZM127.476 89.666C127.077 89.666 126.739 89.5273 126.462 89.25C126.184 88.9727 126.046 88.6347 126.046 88.236C126.046 87.8373 126.184 87.4993 126.462 87.222C126.739 86.9447 127.077 86.806 127.476 86.806C127.874 86.806 128.212 86.9447 128.49 87.222C128.767 87.4993 128.906 87.8373 128.906 88.236C128.906 88.6347 128.767 88.9727 128.49 89.25C128.212 89.5273 127.874 89.666 127.476 89.666Z" fill="white"/>
<path d="M133.315 92.5H135.473V94.658C135.785 94.0167 136.305 93.462 137.033 92.994C137.779 92.5087 138.715 92.266 139.841 92.266C140.535 92.266 141.176 92.37 141.765 92.578C142.355 92.7687 142.857 93.0893 143.273 93.54C143.707 93.9733 144.036 94.5367 144.261 95.23C144.504 95.9233 144.625 96.764 144.625 97.752V106.098H142.467V97.596C142.467 96.4 142.207 95.5247 141.687 94.97C141.167 94.4153 140.361 94.138 139.269 94.138C138.767 94.138 138.281 94.216 137.813 94.372C137.363 94.528 136.964 94.762 136.617 95.074C136.271 95.386 135.993 95.776 135.785 96.244C135.577 96.712 135.473 97.2493 135.473 97.856V106.098H133.315V92.5Z" fill="white"/>
<path d="M160.199 106.28C158.951 106.28 158.024 105.951 157.417 105.292C156.828 104.633 156.533 103.767 156.533 102.692V94.32H154.583V92.5H156.533V89.406H158.691V92.5H161.863V94.32H158.691V102.484C158.691 103.801 159.255 104.46 160.381 104.46C160.728 104.46 161.031 104.434 161.291 104.382C161.551 104.33 161.803 104.261 162.045 104.174V105.994C161.82 106.081 161.569 106.15 161.291 106.202C161.014 106.254 160.65 106.28 160.199 106.28Z" fill="white"/>
<path d="M165.612 86H167.77V94.658C168.082 94.0167 168.602 93.462 169.33 92.994C170.076 92.5087 171.012 92.266 172.138 92.266C172.832 92.266 173.473 92.37 174.062 92.578C174.652 92.7687 175.154 93.0893 175.57 93.54C176.004 93.9733 176.333 94.5367 176.558 95.23C176.801 95.9233 176.922 96.764 176.922 97.752V106.098H174.764V97.596C174.764 96.4 174.504 95.5247 173.984 94.97C173.464 94.4153 172.658 94.138 171.566 94.138C171.064 94.138 170.578 94.216 170.11 94.372C169.66 94.528 169.261 94.762 168.914 95.074C168.568 95.386 168.29 95.776 168.082 96.244C167.874 96.712 167.77 97.2493 167.77 97.856V106.098H165.612V86Z" fill="white"/>
<path d="M187.045 106.332C186.075 106.332 185.191 106.167 184.393 105.838C183.596 105.509 182.903 105.049 182.313 104.46C181.724 103.853 181.265 103.125 180.935 102.276C180.623 101.427 180.467 100.482 180.467 99.442V99.234C180.467 98.2113 180.623 97.2753 180.935 96.426C181.247 95.5593 181.681 94.8227 182.235 94.216C182.807 93.592 183.483 93.1153 184.263 92.786C185.043 92.4393 185.901 92.266 186.837 92.266C187.617 92.266 188.371 92.396 189.099 92.656C189.845 92.8987 190.503 93.2887 191.075 93.826C191.647 94.3633 192.098 95.0653 192.427 95.932C192.774 96.7813 192.947 97.8127 192.947 99.026V99.728H182.703C182.755 101.288 183.145 102.484 183.873 103.316C184.601 104.131 185.667 104.538 187.071 104.538C189.203 104.538 190.408 103.749 190.685 102.172H192.843C192.601 103.541 191.959 104.581 190.919 105.292C189.879 105.985 188.588 106.332 187.045 106.332ZM190.737 97.986C190.633 96.582 190.235 95.5767 189.541 94.97C188.865 94.3633 187.964 94.06 186.837 94.06C185.728 94.06 184.818 94.4153 184.107 95.126C183.414 95.8193 182.972 96.7727 182.781 97.986H190.737Z" fill="white"/>
<path d="M203.444 92.5H205.602V94.658C205.914 94.0167 206.434 93.462 207.162 92.994C207.908 92.5087 208.844 92.266 209.97 92.266C210.664 92.266 211.305 92.37 211.894 92.578C212.484 92.7687 212.986 93.0893 213.402 93.54C213.836 93.9733 214.165 94.5367 214.39 95.23C214.633 95.9233 214.754 96.764 214.754 97.752V106.098H212.596V97.596C212.596 96.4 212.336 95.5247 211.816 94.97C211.296 94.4153 210.49 94.138 209.398 94.138C208.896 94.138 208.41 94.216 207.942 94.372C207.492 94.528 207.093 94.762 206.746 95.074C206.4 95.386 206.122 95.776 205.914 96.244C205.706 96.712 205.602 97.2493 205.602 97.856V106.098H203.444V92.5Z" fill="white"/>
<path d="M224.877 106.332C223.907 106.332 223.023 106.167 222.225 105.838C221.428 105.509 220.735 105.049 220.145 104.46C219.556 103.853 219.097 103.125 218.767 102.276C218.455 101.427 218.299 100.482 218.299 99.442V99.234C218.299 98.2113 218.455 97.2753 218.767 96.426C219.079 95.5593 219.513 94.8227 220.067 94.216C220.639 93.592 221.315 93.1153 222.095 92.786C222.875 92.4393 223.733 92.266 224.669 92.266C225.449 92.266 226.203 92.396 226.931 92.656C227.677 92.8987 228.335 93.2887 228.907 93.826C229.479 94.3633 229.93 95.0653 230.259 95.932C230.606 96.7813 230.779 97.8127 230.779 99.026V99.728H220.535C220.587 101.288 220.977 102.484 221.705 103.316C222.433 104.131 223.499 104.538 224.903 104.538C227.035 104.538 228.24 103.749 228.517 102.172H230.675C230.433 103.541 229.791 104.581 228.751 105.292C227.711 105.985 226.42 106.332 224.877 106.332ZM228.569 97.986C228.465 96.582 228.067 95.5767 227.373 94.97C226.697 94.3633 225.796 94.06 224.669 94.06C223.56 94.06 222.65 94.4153 221.939 95.126C221.246 95.8193 220.804 96.7727 220.613 97.986H228.569Z" fill="white"/>
<path d="M232.812 92.5H235.152L238.324 103.446L241.626 92.5H243.499L246.592 103.446L249.79 92.5H252.001L247.762 106.098H245.37L242.536 95.906L239.365 106.098H236.999L232.812 92.5Z" fill="white"/>
<path d="M24 126.5H26.34L29.512 137.446L32.814 126.5H34.686L37.78 137.446L40.978 126.5H43.188L38.95 140.098H36.558L33.724 129.906L30.552 140.098H28.186L24 126.5Z" fill="white"/>
<path d="M49.5554 140.332C48.9314 140.332 48.342 140.254 47.7874 140.098C47.2327 139.942 46.7474 139.699 46.3314 139.37C45.9327 139.041 45.612 138.625 45.3694 138.122C45.144 137.619 45.0314 137.021 45.0314 136.328C45.0314 135.548 45.222 134.889 45.6034 134.352C45.9847 133.815 46.4874 133.381 47.1114 133.052C47.7527 132.723 48.4807 132.489 49.2954 132.35C50.1274 132.194 50.9767 132.116 51.8434 132.116H53.7934V131.128C53.7934 130.036 53.568 129.256 53.1174 128.788C52.6667 128.303 51.9214 128.06 50.8814 128.06C49.0094 128.06 47.9694 128.875 47.7614 130.504H45.6034C45.6727 129.724 45.8634 129.065 46.1754 128.528C46.5047 127.991 46.912 127.557 47.3974 127.228C47.9 126.881 48.4547 126.639 49.0614 126.5C49.6854 126.344 50.3267 126.266 50.9854 126.266C51.6267 126.266 52.2507 126.344 52.8574 126.5C53.464 126.639 53.9927 126.899 54.4434 127.28C54.894 127.644 55.258 128.138 55.5354 128.762C55.8127 129.386 55.9514 130.175 55.9514 131.128V140.098H53.7934V138.382C53.2907 139.023 52.71 139.509 52.0514 139.838C51.3927 140.167 50.5607 140.332 49.5554 140.332ZM49.7634 138.616C50.3354 138.616 50.864 138.547 51.3494 138.408C51.852 138.252 52.2767 138.035 52.6234 137.758C52.9874 137.481 53.2734 137.143 53.4814 136.744C53.6894 136.328 53.7934 135.86 53.7934 135.34V133.65H51.9214C51.2454 133.65 50.6127 133.702 50.0234 133.806C49.4514 133.893 48.9487 134.04 48.5154 134.248C48.0994 134.456 47.77 134.733 47.5274 135.08C47.302 135.409 47.1894 135.825 47.1894 136.328C47.1894 137.039 47.38 137.602 47.7614 138.018C48.1427 138.417 48.81 138.616 49.7634 138.616Z" fill="white"/>
<path d="M58.5802 126.5H60.9202L64.9502 137.914L68.9282 126.5H71.1642L66.2762 140.098H63.5202L58.5802 126.5Z" fill="white"/>
<path d="M79.4907 140.332C78.52 140.332 77.636 140.167 76.8387 139.838C76.0414 139.509 75.348 139.049 74.7587 138.46C74.1694 137.853 73.71 137.125 73.3807 136.276C73.0687 135.427 72.9127 134.482 72.9127 133.442V133.234C72.9127 132.211 73.0687 131.275 73.3807 130.426C73.6927 129.559 74.126 128.823 74.6807 128.216C75.2527 127.592 75.9287 127.115 76.7087 126.786C77.4887 126.439 78.3467 126.266 79.2827 126.266C80.0627 126.266 80.8167 126.396 81.5447 126.656C82.29 126.899 82.9487 127.289 83.5207 127.826C84.0927 128.363 84.5434 129.065 84.8727 129.932C85.2194 130.781 85.3927 131.813 85.3927 133.026V133.728H75.1487C75.2007 135.288 75.5907 136.484 76.3187 137.316C77.0467 138.131 78.1127 138.538 79.5167 138.538C81.6487 138.538 82.8534 137.749 83.1307 136.172H85.2887C85.046 137.541 84.4047 138.581 83.3647 139.292C82.3247 139.985 81.0334 140.332 79.4907 140.332ZM83.1827 131.986C83.0787 130.582 82.68 129.577 81.9867 128.97C81.3107 128.363 80.4094 128.06 79.2827 128.06C78.1734 128.06 77.2634 128.415 76.5527 129.126C75.8594 129.819 75.4174 130.773 75.2267 131.986H83.1827Z" fill="white"/>
<path d="M101.558 138.538C102.234 138.538 102.849 138.417 103.404 138.174C103.958 137.931 104.426 137.585 104.808 137.134C105.189 136.683 105.484 136.146 105.692 135.522C105.9 134.881 106.004 134.179 106.004 133.416V133.234C106.004 132.454 105.9 131.743 105.692 131.102C105.484 130.461 105.18 129.915 104.782 129.464C104.4 129.013 103.932 128.667 103.378 128.424C102.84 128.181 102.234 128.06 101.558 128.06C100.882 128.06 100.266 128.181 99.7116 128.424C99.1569 128.667 98.6889 129.013 98.3076 129.464C97.9263 129.915 97.6316 130.461 97.4236 131.102C97.2156 131.726 97.1116 132.428 97.1116 133.208V133.416C97.1116 134.976 97.5016 136.224 98.2816 137.16C99.0789 138.079 100.171 138.538 101.558 138.538ZM101.532 140.332C100.561 140.332 99.6683 140.159 98.8536 139.812C98.0389 139.465 97.3369 138.989 96.7476 138.382C96.1583 137.758 95.6989 137.021 95.3696 136.172C95.0403 135.323 94.8756 134.404 94.8756 133.416V133.208C94.8756 132.185 95.0403 131.249 95.3696 130.4C95.7163 129.551 96.1843 128.823 96.7736 128.216C97.3629 127.592 98.0649 127.115 98.8796 126.786C99.6943 126.439 100.587 126.266 101.558 126.266C102.511 126.266 103.395 126.439 104.21 126.786C105.042 127.115 105.752 127.583 106.342 128.19C106.931 128.797 107.39 129.525 107.72 130.374C108.066 131.223 108.24 132.159 108.24 133.182V133.39C108.24 134.413 108.066 135.357 107.72 136.224C107.39 137.073 106.922 137.801 106.316 138.408C105.726 139.015 105.024 139.491 104.21 139.838C103.395 140.167 102.502 140.332 101.532 140.332Z" fill="white"/>
<path d="M112.379 128.32H110.429V126.5H112.379V124.29C112.379 122.903 112.717 121.829 113.393 121.066C114.069 120.303 115.083 119.922 116.435 119.922C116.782 119.922 117.068 119.948 117.293 120C117.518 120.035 117.77 120.095 118.047 120.182V122.002C117.856 121.915 117.622 121.846 117.345 121.794C117.085 121.742 116.808 121.716 116.513 121.716C115.802 121.716 115.291 121.933 114.979 122.366C114.684 122.799 114.537 123.363 114.537 124.056V126.5H117.865V128.32H114.537V140.098H112.379V128.32Z" fill="white"/>
<path d="M133.752 140.332C132.799 140.332 131.915 140.176 131.1 139.864C130.303 139.535 129.601 139.075 128.994 138.486C128.405 137.879 127.937 137.151 127.59 136.302C127.261 135.453 127.096 134.499 127.096 133.442V133.234C127.096 132.194 127.27 131.249 127.616 130.4C127.963 129.533 128.431 128.797 129.02 128.19C129.627 127.583 130.329 127.115 131.126 126.786C131.924 126.439 132.782 126.266 133.7 126.266C134.411 126.266 135.096 126.353 135.754 126.526C136.43 126.699 137.028 126.977 137.548 127.358C138.086 127.722 138.536 128.207 138.9 128.814C139.264 129.421 139.498 130.157 139.602 131.024H137.47C137.297 129.949 136.855 129.187 136.144 128.736C135.451 128.285 134.636 128.06 133.7 128.06C133.076 128.06 132.496 128.181 131.958 128.424C131.438 128.667 130.979 129.013 130.58 129.464C130.199 129.897 129.896 130.435 129.67 131.076C129.445 131.717 129.332 132.437 129.332 133.234V133.442C129.332 135.123 129.74 136.397 130.554 137.264C131.386 138.113 132.461 138.538 133.778 138.538C134.264 138.538 134.723 138.469 135.156 138.33C135.607 138.191 136.006 137.983 136.352 137.706C136.716 137.429 137.011 137.082 137.236 136.666C137.479 136.25 137.626 135.765 137.678 135.21H139.68C139.611 135.938 139.412 136.623 139.082 137.264C138.77 137.888 138.354 138.425 137.834 138.876C137.314 139.327 136.708 139.682 136.014 139.942C135.321 140.202 134.567 140.332 133.752 140.332Z" fill="white"/>
<path d="M143.243 126.5H145.401V128.944C145.609 128.563 145.843 128.216 146.103 127.904C146.38 127.575 146.692 127.297 147.039 127.072C147.386 126.829 147.793 126.639 148.261 126.5C148.729 126.361 149.266 126.283 149.873 126.266V128.294C149.197 128.329 148.582 128.415 148.027 128.554C147.472 128.693 146.996 128.927 146.597 129.256C146.216 129.585 145.921 130.027 145.713 130.582C145.505 131.119 145.401 131.804 145.401 132.636V140.098H143.243V126.5Z" fill="white"/>
<path d="M157.246 138.694L151.916 126.5H154.23L158.39 136.25L162.16 126.5H164.37L156.856 144.83H154.672L157.246 138.694Z" fill="white"/>
<path d="M167.517 126.5H169.675V128.788C169.865 128.459 170.117 128.147 170.429 127.852C170.758 127.54 171.122 127.271 171.521 127.046C171.919 126.803 172.353 126.613 172.821 126.474C173.289 126.335 173.774 126.266 174.277 126.266C175.161 126.266 175.984 126.422 176.747 126.734C177.509 127.046 178.159 127.497 178.697 128.086C179.251 128.675 179.685 129.395 179.997 130.244C180.309 131.093 180.465 132.047 180.465 133.104V133.312C180.465 134.352 180.317 135.305 180.023 136.172C179.728 137.021 179.312 137.758 178.775 138.382C178.237 139.006 177.587 139.491 176.825 139.838C176.062 140.167 175.213 140.332 174.277 140.332C173.15 140.332 172.197 140.089 171.417 139.604C170.654 139.119 170.073 138.538 169.675 137.862V144.83H167.517V126.5ZM174.069 138.538C175.421 138.538 176.452 138.105 177.163 137.238C177.873 136.354 178.229 135.08 178.229 133.416V133.208C178.229 132.359 178.116 131.613 177.891 130.972C177.665 130.313 177.362 129.776 176.981 129.36C176.617 128.927 176.175 128.606 175.655 128.398C175.152 128.173 174.615 128.06 174.043 128.06C173.419 128.06 172.829 128.164 172.275 128.372C171.737 128.58 171.269 128.901 170.871 129.334C170.472 129.75 170.16 130.287 169.935 130.946C169.709 131.587 169.597 132.341 169.597 133.208V133.416C169.597 134.283 169.701 135.037 169.909 135.678C170.134 136.319 170.437 136.857 170.819 137.29C171.217 137.706 171.694 138.018 172.249 138.226C172.803 138.434 173.41 138.538 174.069 138.538Z" fill="white"/>
<path d="M188.256 140.28C187.008 140.28 186.081 139.951 185.474 139.292C184.885 138.633 184.59 137.767 184.59 136.692V128.32H182.64V126.5H184.59V123.406H186.748V126.5H189.92V128.32H186.748V136.484C186.748 137.801 187.311 138.46 188.438 138.46C188.785 138.46 189.088 138.434 189.348 138.382C189.608 138.33 189.859 138.261 190.102 138.174V139.994C189.877 140.081 189.625 140.15 189.348 140.202C189.071 140.254 188.707 140.28 188.256 140.28Z" fill="white"/>
<path d="M199.337 138.538C200.013 138.538 200.628 138.417 201.183 138.174C201.738 137.931 202.206 137.585 202.587 137.134C202.968 136.683 203.263 136.146 203.471 135.522C203.679 134.881 203.783 134.179 203.783 133.416V133.234C203.783 132.454 203.679 131.743 203.471 131.102C203.263 130.461 202.96 129.915 202.561 129.464C202.18 129.013 201.712 128.667 201.157 128.424C200.62 128.181 200.013 128.06 199.337 128.06C198.661 128.06 198.046 128.181 197.491 128.424C196.936 128.667 196.468 129.013 196.087 129.464C195.706 129.915 195.411 130.461 195.203 131.102C194.995 131.726 194.891 132.428 194.891 133.208V133.416C194.891 134.976 195.281 136.224 196.061 137.16C196.858 138.079 197.95 138.538 199.337 138.538ZM199.311 140.332C198.34 140.332 197.448 140.159 196.633 139.812C195.818 139.465 195.116 138.989 194.527 138.382C193.938 137.758 193.478 137.021 193.149 136.172C192.82 135.323 192.655 134.404 192.655 133.416V133.208C192.655 132.185 192.82 131.249 193.149 130.4C193.496 129.551 193.964 128.823 194.553 128.216C195.142 127.592 195.844 127.115 196.659 126.786C197.474 126.439 198.366 126.266 199.337 126.266C200.29 126.266 201.174 126.439 201.989 126.786C202.821 127.115 203.532 127.583 204.121 128.19C204.71 128.797 205.17 129.525 205.499 130.374C205.846 131.223 206.019 132.159 206.019 133.182V133.39C206.019 134.413 205.846 135.357 205.499 136.224C205.17 137.073 204.702 137.801 204.095 138.408C203.506 139.015 202.804 139.491 201.989 139.838C201.174 140.167 200.282 140.332 199.311 140.332Z" fill="white"/>
</g>
<g opacity="0.6">
<path d="M387.611 87.508H389.873V95.932H399.649V87.508H401.911V106.098H399.649V97.83H389.873V106.098H387.611V87.508Z" fill="white"/>
<path d="M406.804 92.5H408.962V106.098H406.804V92.5ZM407.844 89.666C407.446 89.666 407.108 89.5273 406.83 89.25C406.553 88.9727 406.414 88.6347 406.414 88.236C406.414 87.8373 406.553 87.4993 406.83 87.222C407.108 86.9447 407.446 86.806 407.844 86.806C408.243 86.806 408.581 86.9447 408.858 87.222C409.136 87.4993 409.274 87.8373 409.274 88.236C409.274 88.6347 409.136 88.9727 408.858 89.25C408.581 89.5273 408.243 89.666 407.844 89.666Z" fill="white"/>
<path d="M419.118 111.064C418.113 111.064 417.237 110.951 416.492 110.726C415.764 110.501 415.149 110.197 414.646 109.816C414.161 109.452 413.779 109.01 413.502 108.49C413.225 107.987 413.043 107.45 412.956 106.878H415.166C415.478 108.455 416.787 109.244 419.092 109.244C420.427 109.244 421.484 108.906 422.264 108.23C423.061 107.571 423.46 106.514 423.46 105.058V103.082C423.269 103.411 423.009 103.732 422.68 104.044C422.368 104.356 422.004 104.633 421.588 104.876C421.189 105.101 420.756 105.292 420.288 105.448C419.82 105.587 419.343 105.656 418.858 105.656C417.974 105.656 417.151 105.5 416.388 105.188C415.625 104.859 414.967 104.408 414.412 103.836C413.875 103.264 413.45 102.588 413.138 101.808C412.826 101.011 412.67 100.144 412.67 99.208V99.026C412.67 98.1073 412.826 97.2407 413.138 96.426C413.45 95.594 413.883 94.8747 414.438 94.268C414.993 93.644 415.66 93.1587 416.44 92.812C417.22 92.448 418.078 92.266 419.014 92.266C420.158 92.266 421.085 92.5087 421.796 92.994C422.507 93.462 423.061 94.0253 423.46 94.684V92.5H425.618V105.188C425.618 106.176 425.453 107.034 425.124 107.762C424.795 108.507 424.344 109.123 423.772 109.608C423.2 110.093 422.515 110.457 421.718 110.7C420.938 110.943 420.071 111.064 419.118 111.064ZM419.092 103.862C419.716 103.862 420.297 103.758 420.834 103.55C421.389 103.325 421.865 103.013 422.264 102.614C422.663 102.198 422.975 101.695 423.2 101.106C423.425 100.499 423.538 99.8147 423.538 99.052V98.87C423.538 97.3447 423.148 96.166 422.368 95.334C421.605 94.4847 420.557 94.06 419.222 94.06C418.546 94.06 417.939 94.1813 417.402 94.424C416.865 94.6667 416.414 95.0047 416.05 95.438C415.686 95.854 415.4 96.3653 415.192 96.972C415.001 97.5613 414.906 98.2113 414.906 98.922V99.13C414.906 99.8753 415.019 100.543 415.244 101.132C415.469 101.704 415.764 102.198 416.128 102.614C416.509 103.013 416.951 103.325 417.454 103.55C417.974 103.758 418.52 103.862 419.092 103.862Z" fill="white"/>
<path d="M430.289 86H432.447V94.658C432.759 94.0167 433.279 93.462 434.007 92.994C434.753 92.5087 435.689 92.266 436.815 92.266C437.509 92.266 438.15 92.37 438.739 92.578C439.329 92.7687 439.831 93.0893 440.247 93.54C440.681 93.9733 441.01 94.5367 441.235 95.23C441.478 95.9233 441.599 96.764 441.599 97.752V106.098H439.441V97.596C439.441 96.4 439.181 95.5247 438.661 94.97C438.141 94.4153 437.335 94.138 436.243 94.138C435.741 94.138 435.255 94.216 434.787 94.372C434.337 94.528 433.938 94.762 433.591 95.074C433.245 95.386 432.967 95.776 432.759 96.244C432.551 96.712 432.447 97.2493 432.447 97.856V106.098H430.289V86Z" fill="white"/>
<path d="M445.535 97.934H451.099V99.962H445.535V97.934Z" fill="white"/>
<path d="M464.923 103.758C464.732 104.087 464.472 104.408 464.143 104.72C463.813 105.032 463.441 105.309 463.025 105.552C462.626 105.777 462.184 105.959 461.699 106.098C461.231 106.254 460.754 106.332 460.269 106.332C459.385 106.332 458.561 106.185 457.799 105.89C457.053 105.578 456.403 105.136 455.849 104.564C455.311 103.975 454.887 103.264 454.575 102.432C454.28 101.583 454.133 100.629 454.133 99.572V99.364C454.133 98.324 454.289 97.3707 454.601 96.504C454.913 95.6373 455.346 94.892 455.901 94.268C456.455 93.6267 457.123 93.1327 457.903 92.786C458.683 92.4393 459.541 92.266 460.477 92.266C461.621 92.266 462.548 92.5087 463.259 92.994C463.969 93.462 464.524 94.0253 464.923 94.684V92.5H467.081V110.83H464.923V103.758ZM460.503 104.538C461.127 104.538 461.716 104.434 462.271 104.226C462.825 104.018 463.302 103.706 463.701 103.29C464.099 102.857 464.411 102.319 464.637 101.678C464.879 101.019 465.001 100.257 465.001 99.39V99.182C465.001 97.4313 464.611 96.14 463.831 95.308C463.068 94.476 462.019 94.06 460.685 94.06C459.333 94.06 458.275 94.5107 457.513 95.412C456.75 96.3133 456.369 97.596 456.369 99.26V99.468C456.369 100.335 456.473 101.089 456.681 101.73C456.906 102.354 457.201 102.874 457.565 103.29C457.946 103.706 458.388 104.018 458.891 104.226C459.393 104.434 459.931 104.538 460.503 104.538Z" fill="white"/>
<path d="M476.354 106.332C475.678 106.332 475.046 106.237 474.456 106.046C473.884 105.855 473.39 105.552 472.974 105.136C472.558 104.703 472.229 104.157 471.986 103.498C471.744 102.839 471.622 102.042 471.622 101.106V92.5H473.78V101.002C473.78 102.198 474.032 103.073 474.534 103.628C475.054 104.183 475.852 104.46 476.926 104.46C477.412 104.46 477.88 104.382 478.33 104.226C478.781 104.07 479.18 103.836 479.526 103.524C479.873 103.212 480.15 102.822 480.358 102.354C480.566 101.886 480.67 101.349 480.67 100.742V92.5H482.828V106.098H480.67V103.94C480.358 104.581 479.83 105.145 479.084 105.63C478.356 106.098 477.446 106.332 476.354 106.332Z" fill="white"/>
<path d="M490.926 106.332C490.302 106.332 489.713 106.254 489.158 106.098C488.603 105.942 488.118 105.699 487.702 105.37C487.303 105.041 486.983 104.625 486.74 104.122C486.515 103.619 486.402 103.021 486.402 102.328C486.402 101.548 486.593 100.889 486.974 100.352C487.355 99.8147 487.858 99.3813 488.482 99.052C489.123 98.7227 489.851 98.4887 490.666 98.35C491.498 98.194 492.347 98.116 493.214 98.116H495.164V97.128C495.164 96.036 494.939 95.256 494.488 94.788C494.037 94.3027 493.292 94.06 492.252 94.06C490.38 94.06 489.34 94.8747 489.132 96.504H486.974C487.043 95.724 487.234 95.0653 487.546 94.528C487.875 93.9907 488.283 93.5573 488.768 93.228C489.271 92.8813 489.825 92.6387 490.432 92.5C491.056 92.344 491.697 92.266 492.356 92.266C492.997 92.266 493.621 92.344 494.228 92.5C494.835 92.6387 495.363 92.8987 495.814 93.28C496.265 93.644 496.629 94.138 496.906 94.762C497.183 95.386 497.322 96.1747 497.322 97.128V106.098H495.164V104.382C494.661 105.023 494.081 105.509 493.422 105.838C492.763 106.167 491.931 106.332 490.926 106.332ZM491.134 104.616C491.706 104.616 492.235 104.547 492.72 104.408C493.223 104.252 493.647 104.035 493.994 103.758C494.358 103.481 494.644 103.143 494.852 102.744C495.06 102.328 495.164 101.86 495.164 101.34V99.65H493.292C492.616 99.65 491.983 99.702 491.394 99.806C490.822 99.8927 490.319 100.04 489.886 100.248C489.47 100.456 489.141 100.733 488.898 101.08C488.673 101.409 488.56 101.825 488.56 102.328C488.56 103.039 488.751 103.602 489.132 104.018C489.513 104.417 490.181 104.616 491.134 104.616Z" fill="white"/>
<path d="M501.918 86H504.102V106.098H501.918V86Z" fill="white"/>
<path d="M508.875 92.5H511.033V106.098H508.875V92.5ZM509.915 89.666C509.516 89.666 509.178 89.5273 508.901 89.25C508.623 88.9727 508.485 88.6347 508.485 88.236C508.485 87.8373 508.623 87.4993 508.901 87.222C509.178 86.9447 509.516 86.806 509.915 86.806C510.313 86.806 510.651 86.9447 510.929 87.222C511.206 87.4993 511.345 87.8373 511.345 88.236C511.345 88.6347 511.206 88.9727 510.929 89.25C510.651 89.5273 510.313 89.666 509.915 89.666Z" fill="white"/>
<path d="M519.888 106.28C518.64 106.28 517.713 105.951 517.106 105.292C516.517 104.633 516.222 103.767 516.222 102.692V94.32H514.272V92.5H516.222V89.406H518.38V92.5H521.552V94.32H518.38V102.484C518.38 103.801 518.944 104.46 520.07 104.46C520.417 104.46 520.72 104.434 520.98 104.382C521.24 104.33 521.492 104.261 521.734 104.174V105.994C521.509 106.081 521.258 106.15 520.98 106.202C520.703 106.254 520.339 106.28 519.888 106.28Z" fill="white"/>
<path d="M529.097 104.694L523.767 92.5H526.081L530.241 102.25L534.011 92.5H536.221L528.707 110.83H526.523L529.097 104.694Z" fill="white"/>
<path d="M392.577 140.332C391.693 140.332 390.87 140.185 390.107 139.89C389.362 139.578 388.712 139.136 388.157 138.564C387.62 137.975 387.195 137.264 386.883 136.432C386.589 135.583 386.441 134.629 386.441 133.572V133.364C386.441 132.324 386.597 131.371 386.909 130.504C387.221 129.637 387.655 128.892 388.209 128.268C388.764 127.627 389.431 127.133 390.211 126.786C390.991 126.439 391.849 126.266 392.785 126.266C393.929 126.266 394.857 126.509 395.567 126.994C396.278 127.462 396.833 128.025 397.231 128.684V120H399.389V140.098H397.231V137.758C397.041 138.087 396.781 138.408 396.451 138.72C396.122 139.032 395.749 139.309 395.333 139.552C394.935 139.777 394.493 139.959 394.007 140.098C393.539 140.254 393.063 140.332 392.577 140.332ZM392.811 138.538C393.435 138.538 394.025 138.434 394.579 138.226C395.134 138.018 395.611 137.706 396.009 137.29C396.408 136.857 396.72 136.319 396.945 135.678C397.188 135.019 397.309 134.257 397.309 133.39V133.182C397.309 131.431 396.919 130.14 396.139 129.308C395.377 128.476 394.328 128.06 392.993 128.06C391.641 128.06 390.584 128.511 389.821 129.412C389.059 130.313 388.677 131.596 388.677 133.26V133.468C388.677 134.335 388.781 135.089 388.989 135.73C389.215 136.354 389.509 136.874 389.873 137.29C390.255 137.706 390.697 138.018 391.199 138.226C391.702 138.434 392.239 138.538 392.811 138.538Z" fill="white"/>
<path d="M409.625 140.332C408.654 140.332 407.77 140.167 406.973 139.838C406.176 139.509 405.482 139.049 404.893 138.46C404.304 137.853 403.844 137.125 403.515 136.276C403.203 135.427 403.047 134.482 403.047 133.442V133.234C403.047 132.211 403.203 131.275 403.515 130.426C403.827 129.559 404.26 128.823 404.815 128.216C405.387 127.592 406.063 127.115 406.843 126.786C407.623 126.439 408.481 126.266 409.417 126.266C410.197 126.266 410.951 126.396 411.679 126.656C412.424 126.899 413.083 127.289 413.655 127.826C414.227 128.363 414.678 129.065 415.007 129.932C415.354 130.781 415.527 131.813 415.527 133.026V133.728H405.283C405.335 135.288 405.725 136.484 406.453 137.316C407.181 138.131 408.247 138.538 409.651 138.538C411.783 138.538 412.988 137.749 413.265 136.172H415.423C415.18 137.541 414.539 138.581 413.499 139.292C412.459 139.985 411.168 140.332 409.625 140.332ZM413.317 131.986C413.213 130.582 412.814 129.577 412.121 128.97C411.445 128.363 410.544 128.06 409.417 128.06C408.308 128.06 407.398 128.415 406.687 129.126C405.994 129.819 405.552 130.773 405.361 131.986H413.317Z" fill="white"/>
<path d="M423.482 140.332C421.853 140.332 420.57 139.951 419.634 139.188C418.715 138.408 418.221 137.316 418.152 135.912H420.258C420.345 136.727 420.622 137.368 421.09 137.836C421.575 138.304 422.364 138.538 423.456 138.538C424.496 138.538 425.25 138.365 425.718 138.018C426.186 137.654 426.42 137.108 426.42 136.38C426.42 135.669 426.151 135.158 425.614 134.846C425.094 134.534 424.305 134.283 423.248 134.092C422.364 133.936 421.619 133.754 421.012 133.546C420.405 133.321 419.92 133.052 419.556 132.74C419.192 132.428 418.923 132.055 418.75 131.622C418.594 131.189 418.516 130.677 418.516 130.088C418.516 129.464 418.655 128.918 418.932 128.45C419.209 127.965 419.565 127.566 419.998 127.254C420.449 126.925 420.943 126.682 421.48 126.526C422.035 126.353 422.581 126.266 423.118 126.266C423.725 126.266 424.305 126.335 424.86 126.474C425.415 126.595 425.909 126.812 426.342 127.124C426.793 127.436 427.165 127.843 427.46 128.346C427.755 128.849 427.945 129.464 428.032 130.192H425.952C425.796 129.447 425.493 128.909 425.042 128.58C424.609 128.233 423.959 128.06 423.092 128.06C422.312 128.06 421.688 128.242 421.22 128.606C420.752 128.953 420.518 129.421 420.518 130.01C420.518 130.322 420.561 130.591 420.648 130.816C420.752 131.024 420.925 131.215 421.168 131.388C421.411 131.544 421.731 131.691 422.13 131.83C422.546 131.951 423.066 132.064 423.69 132.168C424.383 132.307 425.025 132.463 425.614 132.636C426.203 132.792 426.706 133.017 427.122 133.312C427.555 133.589 427.885 133.962 428.11 134.43C428.353 134.881 428.474 135.47 428.474 136.198C428.474 137.446 428.058 138.451 427.226 139.214C426.394 139.959 425.146 140.332 423.482 140.332Z" fill="white"/>
<path d="M432.119 126.5H434.277V140.098H432.119V126.5ZM433.159 123.666C432.76 123.666 432.422 123.527 432.145 123.25C431.867 122.973 431.729 122.635 431.729 122.236C431.729 121.837 431.867 121.499 432.145 121.222C432.422 120.945 432.76 120.806 433.159 120.806C433.557 120.806 433.895 120.945 434.173 121.222C434.45 121.499 434.589 121.837 434.589 122.236C434.589 122.635 434.45 122.973 434.173 123.25C433.895 123.527 433.557 123.666 433.159 123.666Z" fill="white"/>
<path d="M444.432 145.064C443.427 145.064 442.552 144.951 441.806 144.726C441.078 144.501 440.463 144.197 439.96 143.816C439.475 143.452 439.094 143.01 438.816 142.49C438.539 141.987 438.357 141.45 438.27 140.878H440.48C440.792 142.455 442.101 143.244 444.406 143.244C445.741 143.244 446.798 142.906 447.578 142.23C448.376 141.571 448.774 140.514 448.774 139.058V137.082C448.584 137.411 448.324 137.732 447.994 138.044C447.682 138.356 447.318 138.633 446.902 138.876C446.504 139.101 446.07 139.292 445.602 139.448C445.134 139.587 444.658 139.656 444.172 139.656C443.288 139.656 442.465 139.5 441.702 139.188C440.94 138.859 440.281 138.408 439.726 137.836C439.189 137.264 438.764 136.588 438.452 135.808C438.14 135.011 437.984 134.144 437.984 133.208V133.026C437.984 132.107 438.14 131.241 438.452 130.426C438.764 129.594 439.198 128.875 439.752 128.268C440.307 127.644 440.974 127.159 441.754 126.812C442.534 126.448 443.392 126.266 444.328 126.266C445.472 126.266 446.4 126.509 447.11 126.994C447.821 127.462 448.376 128.025 448.774 128.684V126.5H450.932V139.188C450.932 140.176 450.768 141.034 450.438 141.762C450.109 142.507 449.658 143.123 449.086 143.608C448.514 144.093 447.83 144.457 447.032 144.7C446.252 144.943 445.386 145.064 444.432 145.064ZM444.406 137.862C445.03 137.862 445.611 137.758 446.148 137.55C446.703 137.325 447.18 137.013 447.578 136.614C447.977 136.198 448.289 135.695 448.514 135.106C448.74 134.499 448.852 133.815 448.852 133.052V132.87C448.852 131.345 448.462 130.166 447.682 129.334C446.92 128.485 445.871 128.06 444.536 128.06C443.86 128.06 443.254 128.181 442.716 128.424C442.179 128.667 441.728 129.005 441.364 129.438C441 129.854 440.714 130.365 440.506 130.972C440.316 131.561 440.22 132.211 440.22 132.922V133.13C440.22 133.875 440.333 134.543 440.558 135.132C440.784 135.704 441.078 136.198 441.442 136.614C441.824 137.013 442.266 137.325 442.768 137.55C443.288 137.758 443.834 137.862 444.406 137.862Z" fill="white"/>
<path d="M455.604 126.5H457.762V128.658C458.074 128.017 458.594 127.462 459.322 126.994C460.067 126.509 461.003 126.266 462.13 126.266C462.823 126.266 463.465 126.37 464.054 126.578C464.643 126.769 465.146 127.089 465.562 127.54C465.995 127.973 466.325 128.537 466.55 129.23C466.793 129.923 466.914 130.764 466.914 131.752V140.098H464.756V131.596C464.756 130.4 464.496 129.525 463.976 128.97C463.456 128.415 462.65 128.138 461.558 128.138C461.055 128.138 460.57 128.216 460.102 128.372C459.651 128.528 459.253 128.762 458.906 129.074C458.559 129.386 458.282 129.776 458.074 130.244C457.866 130.712 457.762 131.249 457.762 131.856V140.098H455.604V126.5Z" fill="white"/>
<path d="M483.996 140.332C483.043 140.332 482.159 140.176 481.344 139.864C480.547 139.535 479.845 139.075 479.238 138.486C478.649 137.879 478.181 137.151 477.834 136.302C477.505 135.453 477.34 134.499 477.34 133.442V133.234C477.34 132.194 477.513 131.249 477.86 130.4C478.207 129.533 478.675 128.797 479.264 128.19C479.871 127.583 480.573 127.115 481.37 126.786C482.167 126.439 483.025 126.266 483.944 126.266C484.655 126.266 485.339 126.353 485.998 126.526C486.674 126.699 487.272 126.977 487.792 127.358C488.329 127.722 488.78 128.207 489.144 128.814C489.508 129.421 489.742 130.157 489.846 131.024H487.714C487.541 129.949 487.099 129.187 486.388 128.736C485.695 128.285 484.88 128.06 483.944 128.06C483.32 128.06 482.739 128.181 482.202 128.424C481.682 128.667 481.223 129.013 480.824 129.464C480.443 129.897 480.139 130.435 479.914 131.076C479.689 131.717 479.576 132.437 479.576 133.234V133.442C479.576 135.123 479.983 136.397 480.798 137.264C481.63 138.113 482.705 138.538 484.022 138.538C484.507 138.538 484.967 138.469 485.4 138.33C485.851 138.191 486.249 137.983 486.596 137.706C486.96 137.429 487.255 137.082 487.48 136.666C487.723 136.25 487.87 135.765 487.922 135.21H489.924C489.855 135.938 489.655 136.623 489.326 137.264C489.014 137.888 488.598 138.425 488.078 138.876C487.558 139.327 486.951 139.682 486.258 139.942C485.565 140.202 484.811 140.332 483.996 140.332Z" fill="white"/>
<path d="M493.487 126.5H495.645V128.944C495.853 128.563 496.087 128.216 496.347 127.904C496.624 127.575 496.936 127.297 497.283 127.072C497.629 126.829 498.037 126.639 498.505 126.5C498.973 126.361 499.51 126.283 500.117 126.266V128.294C499.441 128.329 498.825 128.415 498.271 128.554C497.716 128.693 497.239 128.927 496.841 129.256C496.459 129.585 496.165 130.027 495.957 130.582C495.749 131.119 495.645 131.804 495.645 132.636V140.098H493.487V126.5Z" fill="white"/>
<path d="M506.846 140.332C506.222 140.332 505.632 140.254 505.078 140.098C504.523 139.942 504.038 139.699 503.622 139.37C503.223 139.041 502.902 138.625 502.66 138.122C502.434 137.619 502.322 137.021 502.322 136.328C502.322 135.548 502.512 134.889 502.894 134.352C503.275 133.815 503.778 133.381 504.402 133.052C505.043 132.723 505.771 132.489 506.586 132.35C507.418 132.194 508.267 132.116 509.134 132.116H511.084V131.128C511.084 130.036 510.858 129.256 510.408 128.788C509.957 128.303 509.212 128.06 508.172 128.06C506.3 128.06 505.26 128.875 505.052 130.504H502.894C502.963 129.724 503.154 129.065 503.466 128.528C503.795 127.991 504.202 127.557 504.688 127.228C505.19 126.881 505.745 126.639 506.352 126.5C506.976 126.344 507.617 126.266 508.276 126.266C508.917 126.266 509.541 126.344 510.148 126.5C510.754 126.639 511.283 126.899 511.734 127.28C512.184 127.644 512.548 128.138 512.826 128.762C513.103 129.386 513.242 130.175 513.242 131.128V140.098H511.084V138.382C510.581 139.023 510 139.509 509.342 139.838C508.683 140.167 507.851 140.332 506.846 140.332ZM507.054 138.616C507.626 138.616 508.154 138.547 508.64 138.408C509.142 138.252 509.567 138.035 509.914 137.758C510.278 137.481 510.564 137.143 510.772 136.744C510.98 136.328 511.084 135.86 511.084 135.34V133.65H509.212C508.536 133.65 507.903 133.702 507.314 133.806C506.742 133.893 506.239 134.04 505.806 134.248C505.39 134.456 505.06 134.733 504.818 135.08C504.592 135.409 504.48 135.825 504.48 136.328C504.48 137.039 504.67 137.602 505.052 138.018C505.433 138.417 506.1 138.616 507.054 138.616Z" fill="white"/>
<path d="M518.253 128.32H516.303V126.5H518.253V124.29C518.253 122.903 518.591 121.829 519.267 121.066C519.943 120.303 520.957 119.922 522.309 119.922C522.656 119.922 522.942 119.948 523.167 120C523.393 120.035 523.644 120.095 523.921 120.182V122.002C523.731 121.915 523.497 121.846 523.219 121.794C522.959 121.742 522.682 121.716 522.387 121.716C521.677 121.716 521.165 121.933 520.853 122.366C520.559 122.799 520.411 123.363 520.411 124.056V126.5H523.739V128.32H520.411V140.098H518.253V128.32Z" fill="white"/>
<path d="M531.365 140.28C530.117 140.28 529.189 139.951 528.583 139.292C527.993 138.633 527.699 137.767 527.699 136.692V128.32H525.749V126.5H527.699V123.406H529.857V126.5H533.029V128.32H529.857V136.484C529.857 137.801 530.42 138.46 531.547 138.46C531.893 138.46 532.197 138.434 532.457 138.382C532.717 138.33 532.968 138.261 533.211 138.174V139.994C532.985 140.081 532.734 140.15 532.457 140.202C532.179 140.254 531.815 140.28 531.365 140.28Z" fill="white"/>
</g>
<defs>
<linearGradient id="paint0_linear_498_28307" x1="77" y1="115" x2="543" y2="109" gradientUnits="userSpaceOnUse">
<stop stop-color="white"/>
<stop offset="1" stop-color="white" stop-opacity="0"/>
</linearGradient>
</defs>
</svg>
